<?xml version="1.0" encoding="utf-8"?>
<!-- Generator: Adobe Illustrator 23.1.0, SVG Export Plug-In . SVG Version: 6.00 Build 0)  -->
<svg version="1.1" id="Layer_1" xmlns="http://www.w3.org/2000/svg" xmlns:xlink="http://www.w3.org/1999/xlink" x="0px" y="0px"
	 viewBox="0 0 1080 1080" style="enable-background:new 0 0 1080 1080;" xml:space="preserve">
<style type="text/css">
	.st0{fill:none;stroke:#FFFFFF;stroke-width:2.5;stroke-miterlimit:10;}
</style>
<g id="Layer_3">
	<g>
		<g>
			<g>
				<g>
					<path class="st0" d="M588.6,626.2c8.1-8.3,14.6-18.1,19-28.7c4.4-10.6,6.8-22,6.8-33.7l104.2,0.9c-0.2,24.8-5.2,49.7-14.8,72.7
						c-9.5,23-23.5,44.1-40.9,61.8L588.6,626.2z"/>
					<path class="st0" d="M628.6,626c3.2-5.3,5.9-10.8,8.3-16.4c2.4-5.7,4.2-11.5,5.7-17.5l39.8,9.8c-2,8-4.5,15.8-7.7,23.4
						c-3.2,7.6-6.9,14.9-11.1,21.9L628.6,626z"/>
					<path class="st0" d="M608.9,628c0.8-0.9,1.4-1.9,2.1-2.8c0.7-1,1.4-1.9,2-2.9c1.2-2,2.6-3.9,3.7-6c2.4-4,4.4-8.3,6.2-12.5
						c3.5-8.6,6-17.7,7.2-26.9l70.6,9.2c-1.9,15.5-6.1,30.6-12,45c-3,7.2-6.4,14.2-10.4,20.9c-1.9,3.4-4.1,6.6-6.2,9.9
						c-1.1,1.6-2.2,3.2-3.3,4.8s-2.3,3.2-3.5,4.7L608.9,628z"/>
				</g>
				<g>
					<path class="st0" d="M525,653.3c11.7-0.1,23.1-2.4,33.7-6.8c10.6-4.4,20.5-10.9,28.7-19l73,74.3
						c-17.7,17.4-38.8,31.4-61.8,40.9c-23,9.6-48,14.6-72.7,14.8L525,653.3z"/>
					<path class="st0" d="M553.4,681.3c5.9-1.5,11.8-3.3,17.5-5.7c5.6-2.4,11.1-5.1,16.4-8.3l21.2,35c-7,4.2-14.4,7.9-21.9,11.1
						c-7.6,3.2-15.4,5.7-23.4,7.7L553.4,681.3z"/>
					<path class="st0" d="M538.1,668.8c9.3-1.1,18.3-3.7,26.9-7.2c4.3-1.8,8.5-3.8,12.5-6.2c2.1-1.1,4-2.5,6-3.7
						c1-0.6,1.9-1.3,2.9-2c1-0.7,1.9-1.3,2.8-2.1l43.4,56.5c-1.5,1.2-3.1,2.3-4.7,3.5c-1.6,1.1-3.2,2.3-4.8,3.3
						c-3.3,2.1-6.5,4.3-9.9,6.2c-6.7,4-13.8,7.3-20.9,10.4c-14.4,5.9-29.6,10.1-45,12L538.1,668.8z"/>
				</g>
				<g>
					<path class="st0" d="M460.9,627.4c8.3,8.1,18.1,14.6,28.7,19c10.6,4.4,22,6.8,33.7,6.8l-0.9,104.2
						c-24.8-0.2-49.7-5.2-72.7-14.8c-23-9.5-44.1-23.5-61.8-40.9L460.9,627.4z"/>
					<path class="st0" d="M461.1,667.3c5.3,3.2,10.8,5.9,16.4,8.3c5.6,2.4,11.5,4.2,17.5,5.7l-9.8,39.8c-8-2-15.8-4.5-23.4-7.7
						c-7.6-3.2-14.9-6.9-21.9-11.1L461.1,667.3z"/>
					<path class="st0" d="M459.1,647.7c0.9,0.8,1.9,1.4,2.8,2.1c1,0.7,1.9,1.4,2.9,2c2,1.2,3.9,2.6,6,3.7c4,2.4,8.3,4.4,12.5,6.2
						c8.6,3.5,17.7,6,26.9,7.2l-9.2,70.6c-15.5-1.9-30.6-6.1-45-12c-7.2-3-14.2-6.4-20.9-10.4c-3.4-1.9-6.6-4.1-9.9-6.2
						c-1.6-1.1-3.2-2.2-4.8-3.3s-3.2-2.3-4.7-3.5L459.1,647.7z"/>
				</g>
				<g>
					<path class="st0" d="M433.8,563.8c0.1,11.7,2.4,23.1,6.8,33.7c4.4,10.6,10.9,20.5,19,28.7l-74.3,73
						c-17.4-17.7-31.4-38.8-40.9-61.8c-9.6-23-14.6-48-14.8-72.7L433.8,563.8z"/>
					<path class="st0" d="M405.7,592.2c1.5,5.9,3.3,11.8,5.7,17.5c2.4,5.6,5.1,11.1,8.3,16.4l-35,21.2c-4.2-7-7.9-14.4-11.1-21.9
						c-3.2-7.6-5.6-15.4-7.7-23.4L405.7,592.2z"/>
					<path class="st0" d="M418.3,576.9c1.1,9.3,3.7,18.3,7.2,26.9c1.8,4.3,3.8,8.5,6.2,12.5c1.1,2.1,2.5,4,3.7,6
						c0.6,1,1.4,1.9,2,2.9c0.7,1,1.3,1.9,2.1,2.8L383,671.4c-1.2-1.5-2.4-3.1-3.5-4.7c-1.1-1.6-2.3-3.2-3.4-4.8
						c-2.1-3.3-4.3-6.5-6.1-9.9c-4-6.7-7.3-13.8-10.4-20.9c-5.9-14.4-10.1-29.6-12-45L418.3,576.9z"/>
				</g>
				<g>
					<path class="st0" d="M459.7,499.6c-8.1,8.3-14.6,18.1-19,28.7c-4.4,10.6-6.8,22-6.8,33.7l-104.2-0.9
						c0.1-24.8,5.2-49.7,14.8-72.7c9.5-23,23.5-44.1,40.9-61.8L459.7,499.6z"/>
					<path class="st0" d="M419.7,499.9c-3.1,5.3-5.9,10.8-8.3,16.4c-2.4,5.7-4.2,11.5-5.7,17.5l-39.8-9.8c2-8,4.5-15.8,7.7-23.4
						c3.2-7.6,6.9-14.9,11.1-21.9L419.7,499.9z"/>
					<path class="st0" d="M439.4,497.9c-0.8,0.9-1.4,1.9-2.1,2.8c-0.7,1-1.4,1.9-2,2.9c-1.2,2-2.6,3.9-3.7,6
						c-2.4,4-4.4,8.3-6.2,12.5c-3.5,8.6-6,17.7-7.2,26.9l-70.6-9.2c1.9-15.5,6.1-30.6,12-45c3-7.2,6.4-14.2,10.4-20.9
						c1.9-3.4,4.1-6.6,6.1-9.9c1.1-1.6,2.2-3.2,3.4-4.8s2.3-3.2,3.5-4.7L439.4,497.9z"/>
				</g>
				<g>
					<path class="st0" d="M523.3,472.6c-11.7,0.1-23.1,2.4-33.7,6.8c-10.6,4.4-20.5,10.9-28.7,19l-73-74.3
						c17.7-17.4,38.8-31.4,61.8-40.9c23-9.6,48-14.6,72.7-14.8L523.3,472.6z"/>
					<path class="st0" d="M494.9,444.5c-5.9,1.5-11.8,3.3-17.5,5.7c-5.6,2.4-11.1,5.1-16.4,8.3l-21.2-35c7-4.2,14.4-7.9,21.9-11.1
						c7.6-3.2,15.4-5.6,23.4-7.7L494.9,444.5z"/>
					<path class="st0" d="M510.2,457c-9.3,1.1-18.3,3.7-26.9,7.2c-4.3,1.8-8.5,3.8-12.5,6.2c-2.1,1.1-4,2.5-6,3.7
						c-1,0.6-1.9,1.4-2.9,2c-1,0.7-1.9,1.3-2.8,2.1l-43.4-56.5c1.5-1.2,3.1-2.4,4.7-3.5c1.6-1.1,3.2-2.3,4.8-3.4
						c3.3-2.1,6.5-4.3,9.9-6.1c6.7-4,13.8-7.3,20.9-10.4c14.4-5.9,29.6-10.1,45-12L510.2,457z"/>
				</g>
				<g>
					<path class="st0" d="M587.5,498.4c-8.3-8.1-18.1-14.6-28.7-19c-10.6-4.4-22-6.8-33.7-6.8l0.9-104.2
						c24.8,0.1,49.7,5.2,72.7,14.8c23,9.5,44.1,23.5,61.8,40.9L587.5,498.4z"/>
					<path class="st0" d="M587.2,458.5c-5.3-3.1-10.8-5.9-16.4-8.3c-5.7-2.4-11.5-4.2-17.5-5.7l9.8-39.8c8,2,15.8,4.5,23.4,7.7
						c7.6,3.2,14.9,6.9,21.9,11.1L587.2,458.5z"/>
					<path class="st0" d="M589.2,478.2c-0.9-0.8-1.9-1.4-2.8-2.1c-1-0.7-1.9-1.4-2.9-2c-2-1.2-3.9-2.6-6-3.7
						c-4-2.4-8.3-4.4-12.5-6.2c-8.6-3.5-17.7-6-26.9-7.2l9.2-70.6c15.5,1.9,30.6,6.1,45,12c7.2,3,14.2,6.4,20.9,10.4
						c3.4,1.9,6.6,4.1,9.9,6.1c1.6,1.1,3.2,2.2,4.8,3.4s3.2,2.3,4.7,3.5L589.2,478.2z"/>
				</g>
				<g>
					<path class="st0" d="M614.5,562.1c-0.1-11.7-2.4-23.1-6.8-33.7c-4.4-10.6-10.9-20.5-19-28.7l74.3-73
						c17.4,17.7,31.4,38.8,40.9,61.8c9.6,23,14.6,48,14.8,72.7L614.5,562.1z"/>
					<path class="st0" d="M642.6,533.7c-1.5-5.9-3.3-11.8-5.7-17.5c-2.4-5.6-5.1-11.1-8.3-16.4l35-21.2c4.2,7,7.9,14.4,11.1,21.9
						c3.2,7.6,5.7,15.4,7.7,23.4L642.6,533.7z"/>
					<path class="st0" d="M630.1,549c-1.1-9.3-3.7-18.3-7.2-26.9c-1.8-4.3-3.8-8.5-6.2-12.5c-1.1-2.1-2.5-4-3.7-6
						c-0.6-1-1.3-1.9-2-2.9c-0.7-1-1.3-1.9-2.1-2.8l56.5-43.4c1.2,1.5,2.3,3.1,3.5,4.7c1.1,1.6,2.3,3.2,3.3,4.8
						c2.1,3.3,4.3,6.5,6.2,9.9c4,6.7,7.3,13.8,10.4,20.9c5.9,14.4,10.1,29.6,12,45L630.1,549z"/>
				</g>
			</g>
		</g>
	</g>
</g>
<g>
	<g>
		<g>
			<g>
				<g>
					<path class="st0" d="M743.8,646.9c10.1-26.4,15.3-54.5,15.5-83l104.2,0.4c-0.2,40.7-7.8,81.6-22.3,119.8L743.8,646.9z"/>
					<path class="st0" d="M782.3,630.4c0.8-3,1.4-6.1,2.2-9.2l1.1-4.6l0.8-4.7c0.5-3.1,1.2-6.2,1.6-9.3l1.2-9.4l40.7,4.6l-1.4,10.8
						c-0.5,3.6-1.2,7.2-1.9,10.8l-1,5.4l-1.2,5.3c-0.8,3.5-1.6,7.1-2.5,10.6L782.3,630.4z"/>
					<path class="st0" d="M764,639.3c0.4-1.2,0.8-2.5,1.1-3.7l1-3.7l1.1-3.7c0.4-1.2,0.7-2.5,1-3.8l1.7-7.6c0.3-1.3,0.6-2.5,0.8-3.8
						l0.7-3.8l1.4-7.6l1-7.7c0.8-5.1,1-10.3,1.4-15.5l71.1,4.3c-0.5,6.6-0.9,13.2-1.8,19.8c-0.4,3.3-0.8,6.6-1.3,9.9l-1.7,9.8
						l-0.9,4.9c-0.3,1.6-0.7,3.2-1.1,4.9l-2.3,9.7c-0.3,1.6-0.8,3.2-1.3,4.8l-1.4,4.8l-1.4,4.8c-0.5,1.6-0.9,3.2-1.5,4.8L764,639.3z
						"/>
				</g>
				<g>
					<path class="st0" d="M698.6,720.6c19-21,34.1-45.5,44.4-71.8l97,38.1c-14.9,38-36.8,73.3-64.1,103.6L698.6,720.6z"/>
					<path class="st0" d="M740.4,719c7.5-10.2,14-21,20-32.2l36.3,19.1c-6.8,12.8-14.4,25.4-23,37.1L740.4,719z"/>
					<path class="st0" d="M720.1,720.7c12.9-16.2,24.1-33.8,32.6-52.6l64.7,29.8c-11,24.2-25.3,46.8-41.9,67.5L720.1,720.7z"/>
				</g>
				<g>
					<path class="st0" d="M629.8,773c25.2-12.7,48.3-30,67.4-50.9l76.7,70.5c-27.5,30.1-60.7,55-97.2,73.4L629.8,773z"/>
					<path class="st0" d="M669.4,786.6l4-2.5l3.9-2.8l3.9-2.7c1.3-0.9,2.6-1.8,3.8-2.8l7.5-5.8c1.3-1,2.5-2,3.6-3l3.6-3.1l27,30.9
						l-4.1,3.6c-1.4,1.2-2.7,2.4-4.2,3.5l-8.6,6.8c-1.4,1.2-2.9,2.2-4.4,3.2l-4.5,3.2l-4.5,3.2l-4.6,3L669.4,786.6z"/>
					<path class="st0" d="M649.9,780.8c4.5-2.5,8.8-5.4,13.2-8.2l1.6-1l1.6-1.1l3.2-2.3l3.2-2.3c1-0.8,2.1-1.5,3.1-2.3l6.1-4.8
						c1-0.8,2.1-1.6,3-2.4l2.9-2.5c2-1.7,3.9-3.4,5.9-5.1l5.6-5.4l49.6,51.1l-7.2,6.9c-2.5,2.2-5,4.4-7.5,6.5
						c-4.9,4.4-10.3,8.4-15.5,12.5c-1.3,1-2.7,2-4,3l-4.1,2.9l-4.1,2.9l-2,1.4l-2.1,1.3c-5.6,3.6-11.1,7.3-16.9,10.5L649.9,780.8z"
						/>
				</g>
				<g>
					<path class="st0" d="M546.9,797c28.2-2.8,55.7-10.6,81.1-23l46.1,93.4c-36.6,18.1-76.6,29.4-117.3,33.3L546.9,797z"/>
					<path class="st0" d="M578.8,824c6.1-1.5,12.3-2.7,18.4-4.6c6.1-1.6,12-3.8,18-5.8l14,38.5c-6.9,2.3-13.8,4.8-20.8,6.7
						c-7,2.1-14.1,3.6-21.2,5.3L578.8,824z"/>
					<path class="st0" d="M562.8,811.6c20.4-3.3,40.5-8.9,59.5-16.9l27.8,65.6c-24.5,10.3-50.3,17.6-76.5,21.7L562.8,811.6z"/>
				</g>
				<g>
					<path class="st0" d="M460.8,789.3c13.6,3.8,27.5,6.3,41.6,7.7l5.3,0.4l2.6,0.2c0.9,0.1,1.8,0.2,2.6,0.2l10.6,0.3l10.6-0.3
						c1.8,0,3.5-0.2,5.3-0.3l5.3-0.4l9,103.8l-7.6,0.6c-2.5,0.2-5.1,0.4-7.6,0.4c-5.1,0.1-10.2,0.3-15.3,0.3l-15.3-0.4
						c-1.3,0-2.5-0.1-3.8-0.2l-3.8-0.3l-7.6-0.6c-20.3-1.9-40.5-5.6-60.2-11.1L460.8,789.3z"/>
					<path class="st0" d="M480.7,826.1c12.5,1.9,25,3.3,37.7,3.4l-0.9,41c-14.5-0.2-29.1-1.7-43.5-4L480.7,826.1z"/>
					<path class="st0" d="M470.2,808.7c1.3,0.3,2.5,0.6,3.8,0.8l3.8,0.7l7.6,1.4l7.7,1c2.6,0.3,5.1,0.7,7.7,0.9
						c5.2,0.3,10.3,0.9,15.5,0.9l7.8,0.2l7.8-0.2l2.2,71.2l-9.9,0.2l-9.9-0.2c-6.6,0-13.2-0.7-19.9-1.2c-3.3-0.2-6.6-0.7-9.9-1.1
						c-3.3-0.4-6.6-0.8-9.9-1.3l-9.8-1.7l-4.9-0.9c-1.6-0.3-3.2-0.7-4.9-1.1L470.2,808.7z"/>
				</g>
				<g>
					<path class="st0" d="M383.3,751.2c22.7,17,48.4,29.8,75.5,37.6l-28.9,100.1c-39.3-11.3-76.4-29.9-109.1-54.3L383.3,751.2z"/>
					<path class="st0" d="M388.6,792.7l8.2,4.7l8.4,4.3c1.4,0.7,2.8,1.5,4.2,2.1l4.3,2l4.3,2l2.1,1l2.2,0.9l-15.6,37.9l-2.5-1
						l-2.5-1.1l-5-2.3l-5-2.3c-1.7-0.7-3.3-1.6-4.9-2.4l-9.7-5l-9.5-5.4L388.6,792.7z"/>
					<path class="st0" d="M385.2,772.7c4.4,2.8,8.7,5.7,13.2,8.2c2.3,1.3,4.5,2.6,6.8,3.8l6.9,3.5c1.1,0.6,2.3,1.2,3.5,1.8l3.5,1.6
						l7.1,3.2l7.2,2.8l3.6,1.4c1.2,0.5,2.4,0.8,3.7,1.3l-23.7,67.2c-1.6-0.5-3.2-1-4.7-1.7l-4.6-1.8l-9.3-3.7l-9.1-4.1l-4.5-2.1
						c-1.5-0.7-3-1.5-4.5-2.2l-8.9-4.5c-2.9-1.5-5.8-3.3-8.7-4.9c-5.8-3.2-11.4-6.9-16.9-10.5L385.2,772.7z"/>
				</g>
				<g>
					<path class="st0" d="M324.8,687.5c7.5,12,16.1,23.3,25.6,33.8c9.5,10.5,20.1,20,31.3,28.6l-63.2,82.8
						c-16.2-12.4-31.4-26.2-45.1-41.2s-26.1-31.4-36.9-48.7L324.8,687.5z"/>
					<path class="st0" d="M314.8,728.1l2.9,3.7c1,1.3,2,2.4,3.1,3.6c2.1,2.4,4.1,4.8,6.2,7.2c4.4,4.5,8.6,9.2,13.3,13.5l-28.3,29.7
						c-5.4-4.9-10.3-10.3-15.3-15.5c-2.4-2.7-4.8-5.5-7.2-8.2c-1.2-1.4-2.4-2.7-3.5-4.2l-3.4-4.3L314.8,728.1z"/>
					<path class="st0" d="M318.8,708.2c5.9,8.5,12.6,16.5,19.4,24.2l5.4,5.6l2.7,2.8l2.8,2.7l5.6,5.4c1.9,1.7,3.9,3.4,5.9,5.1
						l-46.4,54.1c-2.5-2.2-5-4.3-7.5-6.5l-7.2-6.9l-3.6-3.4l-3.4-3.6l-6.9-7.2c-8.8-9.9-17.4-20.1-24.9-31L318.8,708.2z"/>
				</g>
				<g>
					<path class="st0" d="M293.2,607.2c5.3,27.8,15.6,54.5,30.4,78.6l-88.8,54.5c-21.4-34.8-36.4-73.5-44-113.7L293.2,607.2z"/>
					<path class="st0" d="M269.2,641.4c0.9,3,2,6,3,9c0.5,1.5,1,3,1.5,4.5l1.7,4.4l1.7,4.4c0.6,1.5,1.1,3,1.8,4.4l3.9,8.6
						l-37.1,17.5l-4.5-10c-0.8-1.7-1.4-3.4-2.1-5l-2-5.1l-2-5.1c-0.6-1.7-1.2-3.5-1.8-5.2c-1.1-3.5-2.4-6.9-3.4-10.4L269.2,641.4z"
						/>
					<path class="st0" d="M280.1,624.3c0.3,1.3,0.6,2.5,1,3.8l1.1,3.7l1.1,3.7c0.4,1.3,0.7,2.5,1.1,3.7l2.5,7.3
						c0.4,1.2,0.8,2.5,1.3,3.7l1.4,3.6l2.8,7.2l3.2,7.1l1.6,3.5c0.5,1.2,1.2,2.3,1.8,3.5l3.5,6.9l-62.7,33.8l-4.6-8.9
						c-0.8-1.5-1.5-3-2.2-4.5l-2.1-4.5l-4.1-9.1l-3.7-9.3l-1.8-4.6c-0.6-1.5-1.1-3.1-1.6-4.7l-3.2-9.5c-0.6-1.6-1-3.2-1.5-4.8
						l-1.4-4.8l-1.4-4.8c-0.5-1.6-0.9-3.2-1.3-4.8L280.1,624.3z"/>
				</g>
				<g>
					<path class="st0" d="M292.9,520.7c-2.5,13.9-3.8,28-3.9,42.3c0.1,14.2,1.3,28.4,3.9,42.3l-102.5,18.6
						c-3.6-20.1-5.5-40.5-5.5-60.8c0.1-20.3,1.9-40.8,5.5-60.8L292.9,520.7z"/>
					<path class="st0" d="M258.2,544l-0.4,4.7c-0.1,1.6-0.1,3.2-0.1,4.7l-0.3,9.5l0.3,9.5c0,1.6,0,3.2,0.1,4.7l0.4,4.7l-40.9,2.9
						l-0.4-5.4c-0.1-1.8-0.1-3.6-0.2-5.5l-0.3-10.9l0.3-10.9c0.1-1.8,0.1-3.6,0.2-5.5l0.4-5.4L258.2,544z"/>
					<path class="st0" d="M274.5,531.9c-0.8,5.1-1,10.3-1.5,15.5c-0.3,2.6-0.2,5.2-0.3,7.8l-0.2,7.8l0.2,7.8c0.1,2.6,0,5.2,0.3,7.8
						c0.4,5.2,0.7,10.3,1.5,15.5l-70.7,8.7c-1-6.6-1.3-13.2-1.9-19.8c-0.3-3.3-0.3-6.6-0.4-9.9l-0.2-9.9l0.2-9.9
						c0.1-3.3,0.1-6.6,0.4-9.9c0.5-6.6,0.9-13.2,1.9-19.8L274.5,531.9z"/>
				</g>
				<g>
					<path class="st0" d="M323.7,440c-14.8,24.1-25.1,50.9-30.4,78.6l-102.3-19.5c7.6-40.1,22.6-78.9,44-113.7L323.7,440z"/>
					<path class="st0" d="M282.9,449.2l-3.9,8.6c-0.7,1.4-1.2,2.9-1.8,4.4l-1.7,4.4l-1.7,4.4c-0.5,1.5-1,3-1.5,4.5c-1,3-2.1,6-3,9
						L230,472.4c1.1-3.5,2.3-6.9,3.4-10.4c0.6-1.7,1.2-3.5,1.8-5.2l2-5.1l2-5.1c0.7-1.7,1.3-3.4,2.1-5l4.5-10L282.9,449.2z"/>
					<path class="st0" d="M302.5,443.9l-3.5,6.9c-0.6,1.1-1.2,2.3-1.8,3.5l-1.6,3.5l-3.2,7.1l-2.8,7.2l-1.4,3.6
						c-0.5,1.2-0.8,2.4-1.3,3.7l-2.5,7.3c-0.5,1.2-0.8,2.5-1.1,3.7l-1.1,3.7l-1.1,3.7c-0.4,1.2-0.7,2.5-1,3.8L211,484.2
						c0.4-1.6,0.8-3.2,1.3-4.8l1.4-4.8l1.4-4.8c0.4-1.6,0.9-3.2,1.5-4.8l3.2-9.4c0.6-1.6,1-3.2,1.6-4.7l1.8-4.6l3.7-9.3l4.1-9.1
						l2.1-4.5c0.7-1.5,1.5-3,2.2-4.5l4.6-8.9L302.5,443.9z"/>
				</g>
				<g>
					<path class="st0" d="M381.7,375.9c-11.3,8.6-21.8,18.1-31.3,28.6s-18.1,21.8-25.6,33.8L236.5,383
						c10.8-17.3,23.2-33.6,36.9-48.7c13.7-15.1,28.9-28.9,45.1-41.2L381.7,375.9z"/>
					<path class="st0" d="M340.3,369.7c-4.7,4.3-8.9,8.9-13.3,13.5c-2.1,2.4-4.1,4.8-6.2,7.1c-1,1.2-2.1,2.4-3.1,3.6l-2.9,3.7
						l-32.1-25.4l3.4-4.3c1.1-1.4,2.4-2.8,3.5-4.2c2.4-2.8,4.8-5.5,7.2-8.2c5-5.3,10-10.6,15.3-15.5L340.3,369.7z"/>
					<path class="st0" d="M360.5,371.9c-2,1.7-3.9,3.4-5.9,5.1l-5.6,5.4l-2.8,2.7l-2.7,2.8l-5.4,5.6c-6.8,7.8-13.6,15.7-19.4,24.2
						l-58.1-41.2c7.6-10.9,16.1-21.1,24.9-31l6.9-7.2l3.4-3.6l3.6-3.4l7.2-6.9c2.5-2.2,5-4.4,7.5-6.5L360.5,371.9z"/>
				</g>
				<g>
					<path class="st0" d="M458.8,337c-27.1,7.8-52.8,20.6-75.5,37.6l-62.5-83.4c32.7-24.5,69.8-43,109.1-54.3L458.8,337z"/>
					<path class="st0" d="M422.5,316.3l-2.2,0.9l-2.1,1l-4.3,2l-4.3,2c-1.5,0.6-2.8,1.4-4.2,2.1l-8.4,4.3l-8.2,4.7l-20.9-35.3
						l9.5-5.4l9.7-5c1.6-0.8,3.2-1.7,4.9-2.4l5-2.3l5-2.3l2.5-1.1l2.5-1L422.5,316.3z"/>
					<path class="st0" d="M440.6,325.6c-1.2,0.4-2.5,0.8-3.7,1.3l-3.6,1.4l-7.2,2.8l-7.1,3.2l-3.5,1.6c-1.2,0.5-2.3,1.2-3.5,1.8
						l-6.9,3.5c-2.3,1.2-4.5,2.6-6.8,3.8c-4.5,2.5-8.8,5.4-13.2,8.1l-39.4-59.3c5.6-3.6,11.1-7.3,16.9-10.5c2.9-1.6,5.7-3.4,8.7-4.9
						l8.9-4.5c1.5-0.8,3-1.5,4.5-2.2l4.5-2.1l9.1-4.1l9.3-3.7l4.6-1.8c1.5-0.6,3.1-1.1,4.7-1.6L440.6,325.6z"/>
				</g>
				<g>
					<path class="st0" d="M544.9,328.8l-5.3-0.4c-1.8-0.1-3.5-0.3-5.3-0.3l-10.6-0.3l-10.7,0.3c-0.9,0-1.8,0.1-2.6,0.1l-2.6,0.2
						l-5.3,0.4c-14.1,1.3-28,3.9-41.6,7.7l-28-100.3c19.7-5.5,39.9-9.2,60.2-11.1l7.6-0.6l3.8-0.3c1.3-0.1,2.5-0.2,3.8-0.2l15.3-0.4
						c5.1,0,10.2,0.2,15.3,0.3c2.5,0,5.1,0.2,7.6,0.4l7.6,0.6L544.9,328.8z"/>
					<path class="st0" d="M518.4,296.3c-12.6,0.1-25.2,1.5-37.7,3.4l-6.6-40.4c14.4-2.2,28.9-3.8,43.5-3.9L518.4,296.3z"/>
					<path class="st0" d="M532,311.5l-7.8-0.2l-7.8,0.2c-5.2,0-10.4,0.6-15.5,0.9c-2.6,0.1-5.1,0.5-7.7,0.9l-7.7,1l-7.6,1.4
						l-3.8,0.7c-1.3,0.2-2.5,0.6-3.8,0.9L455,247.6c1.6-0.4,3.2-0.8,4.9-1.1l4.9-0.9l9.8-1.7c3.3-0.5,6.6-0.9,9.9-1.3
						c3.3-0.4,6.6-0.9,9.9-1.1c6.6-0.5,13.2-1.1,19.9-1.2l9.9-0.2l9.9,0.2L532,311.5z"/>
				</g>
				<g>
					<path class="st0" d="M628,351.9c-25.4-12.5-52.9-20.3-81.1-23l9.9-103.7c40.6,3.9,80.6,15.3,117.3,33.3L628,351.9z"/>
					<path class="st0" d="M615.2,312.1c-6-2-11.9-4.2-18-5.8c-6-1.9-12.2-3.1-18.4-4.6l8.3-40.1c7.1,1.6,14.2,3.1,21.2,5.3
						c7,1.9,13.9,4.3,20.8,6.6L615.2,312.1z"/>
					<path class="st0" d="M622.3,331.2c-19.1-8-39.1-13.7-59.5-16.9l10.8-70.4c26.3,4.1,52,11.4,76.5,21.7L622.3,331.2z"/>
				</g>
				<g>
					<path class="st0" d="M697.2,403.8c-19.1-20.9-42.2-38.2-67.4-50.9l46.9-93c36.5,18.4,69.6,43.3,97.2,73.4L697.2,403.8z"/>
					<path class="st0" d="M699.5,362l-3.6-3.1c-1.2-1-2.4-2.1-3.6-3l-7.5-5.9c-1.2-1-2.5-1.9-3.8-2.8l-3.9-2.7l-3.9-2.8l-4-2.5
						l22.3-34.4l4.6,3l4.5,3.2l4.5,3.2c1.5,1.1,3,2.1,4.4,3.2l8.6,6.8c1.5,1.1,2.8,2.3,4.2,3.5l4.1,3.6L699.5,362z"/>
					<path class="st0" d="M699.3,382.4l-5.6-5.4c-1.9-1.7-3.9-3.4-5.9-5.1l-2.9-2.5c-1-0.9-2-1.6-3-2.4l-6.1-4.8
						c-1-0.8-2.1-1.5-3.1-2.3l-3.2-2.3l-3.2-2.3l-1.6-1.1l-1.6-1c-4.4-2.8-8.7-5.7-13.2-8.1l35.7-61.7c5.8,3.2,11.3,6.9,16.9,10.5
						l2.1,1.4l2,1.4l4.1,2.9l4.1,2.9c1.3,1,2.7,1.9,4,3c5.2,4.1,10.5,8.1,15.5,12.5c2.5,2.2,5,4.3,7.5,6.5l7.2,6.9L699.3,382.4z"/>
				</g>
				<g>
					<path class="st0" d="M743,477c-10.3-26.3-25.4-50.8-44.4-71.8l77.3-69.9c27.4,30.2,49.2,65.5,64.1,103.6L743,477z"/>
					<path class="st0" d="M760.3,439c-6-11.1-12.4-22-20-32.1l33.2-24c8.7,11.7,16.2,24.3,23,37.1L760.3,439z"/>
					<path class="st0" d="M752.8,457.8c-8.5-18.9-19.7-36.5-32.6-52.6l55.5-44.7c16.6,20.7,30.9,43.3,41.9,67.5L752.8,457.8z"/>
				</g>
				<g>
					<path class="st0" d="M759.3,561.9c-0.1-28.4-5.4-56.6-15.5-83l97.3-37.2c14.6,38.2,22.2,79,22.3,119.8L759.3,561.9z"/>
					<path class="st0" d="M789.1,532.6l-1.2-9.4c-0.5-3.1-1.1-6.2-1.6-9.3l-0.8-4.7l-1.1-4.6c-0.7-3.1-1.4-6.2-2.2-9.2l39.7-10.3
						c0.9,3.5,1.7,7.1,2.5,10.6l1.2,5.3l1,5.4c0.6,3.6,1.3,7.2,1.9,10.8l1.4,10.8L789.1,532.6z"/>
					<path class="st0" d="M775.3,547.5c-0.4-5.2-0.7-10.3-1.4-15.5l-1-7.7l-1.4-7.6l-0.7-3.8c-0.2-1.3-0.6-2.5-0.8-3.8l-1.7-7.6
						c-0.3-1.3-0.6-2.5-1-3.8l-1.1-3.7l-1-3.7c-0.3-1.3-0.7-2.5-1.1-3.7l67.9-21.6c0.6,1.6,1,3.2,1.5,4.8l1.4,4.8l1.4,4.8
						c0.5,1.6,0.9,3.2,1.3,4.8l2.3,9.7c0.3,1.6,0.8,3.2,1.1,4.9l0.9,4.9l1.7,9.8c0.5,3.3,0.9,6.6,1.3,9.9c1,6.6,1.3,13.2,1.8,19.8
						L775.3,547.5z"/>
				</g>
			</g>
		</g>
	</g>
</g>
</svg>
